<svg xmlns="http://www.w3.org/2000/svg" viewBox="0 0 100 100" width="100" height="100">
  <circle cx="50" cy="55" r="38" fill="#8D6E63" stroke="#4E342E" stroke-width="4"/>
  
  <path d="M 30 30 L 25 40 M 70 30 L 75 40 M 50 25 L 50 35 M 20 60 L 15 70 M 80 60 L 85 70 M 50 85 L 50 90" fill="none" stroke="#4E342E" stroke-width="3" stroke-linecap="round" opacity="0.6"/>

  <circle cx="45" cy="22" r="3" fill="#4E342E"/>
  <circle cx="55" cy="22" r="3" fill="#4E342E"/>
  <circle cx="50" cy="28" r="3" fill="#4E342E"/>

  <ellipse cx="32" cy="58" rx="5" ry="3" fill="#FF8DA1" opacity="0.6"/>
  <ellipse cx="68" cy="58" rx="5" ry="3" fill="#FF8DA1" opacity="0.6"/>
  <circle cx="40" cy="50" r="5" fill="#1C2D54"/>
  <circle cx="60" cy="50" r="5" fill="#1C2D54"/>
  <circle cx="38" cy="48" r="2" fill="#FFFFFF"/>
  <circle cx="58" cy="48" r="2" fill="#FFFFFF"/>
  <path d="M 44 60 Q 50 68 56 60" fill="none" stroke="#1C2D54" stroke-width="3" stroke-linecap="round"/>
</svg>