<svg xmlns="http://www.w3.org/2000/svg" viewBox="0 0 100 100" width="100" height="100">
  <circle cx="50" cy="55" r="38" fill="#7B4F9A" stroke="#3E2254" stroke-width="4"/>
  
  <path d="M 50 17 C 45 25 45 40 50 50" fill="none" stroke="#3E2254" stroke-width="3" stroke-linecap="round" opacity="0.7"/>
  
  <path d="M 48 10 L 52 20 M 50 16 L 62 10" fill="none" stroke="#6D4C41" stroke-width="3" stroke-linecap="round"/>
  <path d="M 62 10 C 68 8 72 12 70 18 C 68 22 62 18 62 10 Z" fill="#588157" stroke="#3A5A40" stroke-width="2"/>

  <ellipse cx="32" cy="58" rx="5" ry="3" fill="#FF8DA1" opacity="0.6"/>
  <ellipse cx="68" cy="58" rx="5" ry="3" fill="#FF8DA1" opacity="0.6"/>
  <circle cx="40" cy="50" r="5" fill="#1C2D54"/>
  <circle cx="60" cy="50" r="5" fill="#1C2D54"/>
  <circle cx="38" cy="48" r="2" fill="#FFFFFF"/>
  <circle cx="58" cy="48" r="2" fill="#FFFFFF"/>
  <path d="M 44 60 Q 50 68 56 60" fill="none" stroke="#1C2D54" stroke-width="3" stroke-linecap="round"/>
</svg>