<svg xmlns="http://www.w3.org/2000/svg" viewBox="0 0 100 100" width="100" height="100">
  <path d="M 50 15 A 35 35 0 1 0 50 85 A 35 35 0 1 0 50 15 Z M 50 20 L 58 17 L 65 22 L 70 30 L 72 40 L 70 50 L 65 58 L 58 63 L 50 65 L 42 63 L 35 58 L 30 50 L 28 40 L 30 30 L 35 22 L 42 17 Z" fill="#E63946" stroke="#8D0F19" stroke-width="4" stroke-linejoin="round"/>
  
  <circle cx="50" cy="28" r="4" fill="#E63946" stroke="#8D0F19" stroke-width="2"/>
  <circle cx="58" cy="33" r="4" fill="#E63946" stroke="#8D0F19" stroke-width="2"/>
  <circle cx="62" cy="42" r="4" fill="#E63946" stroke="#8D0F19" stroke-width="2"/>
  <circle cx="58" cy="51" r="4" fill="#E63946" stroke="#8D0F19" stroke-width="2"/>
  <circle cx="50" cy="56" r="4" fill="#E63946" stroke="#8D0F19" stroke-width="2"/>
  <circle cx="42" cy="51" r="4" fill="#E63946" stroke="#8D0F19" stroke-width="2"/>
  <circle cx="38" cy="42" r="4" fill="#E63946" stroke="#8D0F19" stroke-width="2"/>
  <circle cx="42" cy="33" r="4" fill="#E63946" stroke="#8D0F19" stroke-width="2"/>

  <path d="M 35 15 L 44 8 L 50 14 L 56 8 L 65 15 Z" fill="#588157" stroke="#3A5A40" stroke-width="4" stroke-linejoin="round"/>
  
  <ellipse cx="32" cy="58" rx="5" ry="3" fill="#FF8DA1" opacity="0.6"/>
  <ellipse cx="68" cy="58" rx="5" ry="3" fill="#FF8DA1" opacity="0.6"/>

  <circle cx="40" cy="50" r="5" fill="#1C2D54"/>
  <circle cx="60" cy="50" r="5" fill="#1C2D54"/>
  
  <circle cx="38" cy="48" r="2" fill="#FFFFFF"/>
  <circle cx="58" cy="48" r="2" fill="#FFFFFF"/>
  
  <path d="M 44 60 Q 50 68 56 60" fill="none" stroke="#1C2D54" stroke-width="3" stroke-linecap="round"/>
</svg>