<svg xmlns="http://www.w3.org/2000/svg" viewBox="0 0 100 100" width="100" height="100">
  <circle cx="50" cy="55" r="38" fill="#F44336" stroke="#8D0F19" stroke-width="4"/>
  
  <ellipse cx="40" cy="35" rx="2" ry="3" fill="#FBC02D"/>
  <ellipse cx="60" cy="35" rx="2" ry="3" fill="#FBC02D"/>
  <ellipse cx="35" cy="45" rx="2" ry="3" fill="#FBC02D"/>
  <ellipse cx="50" cy="45" rx="2" ry="3" fill="#FBC02D"/>
  <ellipse cx="65" cy="45" rx="2" ry="3" fill="#FBC02D"/>
  <ellipse cx="40" cy="55" rx="2" ry="3" fill="#FBC02D"/>
  <ellipse cx="60" cy="55" rx="2" ry="3" fill="#FBC02D"/>
  <ellipse cx="50" cy="65" rx="2" ry="3" fill="#FBC02D"/>

  <path d="M 30 18 L 38 10 L 50 16 L 62 10 L 70 18 L 50 25 Z" fill="#588157" stroke="#3A5A40" stroke-width="4" stroke-linejoin="round"/>
  
  <ellipse cx="32" cy="62" rx="5" ry="3" fill="#FF8DA1" opacity="0.6"/>
  <ellipse cx="68" cy="62" rx="5" ry="3" fill="#FF8DA1" opacity="0.6"/>

  <circle cx="40" cy="54" r="5" fill="#1C2D54"/>
  <circle cx="60" cy="54" r="5" fill="#1C2D54"/>
  
  <circle cx="38" cy="52" r="2" fill="#FFFFFF"/>
  <circle cx="58" cy="52" r="2" fill="#FFFFFF"/>
  
  <path d="M 44 64 Q 50 72 56 64" fill="none" stroke="#1C2D54" stroke-width="3" stroke-linecap="round"/>
</svg>